<svg xmlns:inkscape="http://www.inkscape.org/namespaces/inkscape" xmlns:sodipodi="http://sodipodi.sourceforge.net/DTD/sodipodi-0.dtd" xmlns="http://www.w3.org/2000/svg" xmlns:svg="http://www.w3.org/2000/svg" version="1.1" id="svg1" xml:space="preserve" inkscape:export-filename="logo.svg" inkscape:export-xdpi="90" inkscape:export-ydpi="90" viewBox="2.12 91.28 205.32 88.33"><sodipodi:namedview id="namedview1" pagecolor="#ffffff" bordercolor="#000000" borderopacity="0.25" inkscape:showpageshadow="2" inkscape:pageopacity="0.0" inkscape:pagecheckerboard="0" inkscape:deskcolor="#d1d1d1" inkscape:document-units="mm" showguides="true"><sodipodi:guide position="90.369969,296.43164" orientation="0,-1" id="guide1" inkscape:locked="false"/></sodipodi:namedview><defs id="defs1"/><g inkscape:label="Layer 1" inkscape:groupmode="layer" id="layer1"><path style="fill:#000000;stroke-width:0.821387" d="m 8.5966153,179.19238 c -3.767375,-0.92106 -5.5821001,-2.56336 -6.2794608,-5.68281 -1.1604507,-5.19103 3.0131418,-14.20117 9.9853785,-21.55692 0.796002,-0.83977 1.649107,-1.62762 1.895795,-1.75076 0.675877,-0.33737 1.922901,-0.0369 2.345932,0.5653 0.361217,0.51418 0.346486,0.54038 -1.086032,1.93163 -4.941596,4.79923 -7.6180747,12.36767 -5.5735357,15.76063 0.6450637,1.07049 2.0617107,1.92248 3.5662827,2.14482 5.03243,0.74364 15.450656,-3.71171 21.772898,-9.31116 5.750687,-5.09325 6.702365,-9.40726 2.822076,-12.79256 -2.241379,-1.95546 -4.634012,-3.12597 -10.675834,-5.22277 -6.607407,-2.29308 -10.807629,-4.49194 -12.489667,-6.53844 -1.157116,-1.40785 -1.715965,-3.39852 -1.567663,-5.58416 0.553584,-8.15857 11.835631,-20.17569 22.564129,-24.03429 6.361611,-2.28801 11.685925,-1.75799 14.975512,1.49077 0.674805,0.66644 1.43176,1.47961 1.682115,1.80706 l 0.455197,0.59538 1.549189,-2.46812 c 3.454528,-5.50362 5.243729,-7.71734 6.434559,-7.96129 0.846267,-0.17336 3.416731,0.68391 5.012061,1.67157 1.546263,0.95729 2.990272,2.44444 3.187741,3.283 0.131471,0.55831 -0.02475,0.78925 -1.571762,2.32305 -3.572806,3.54232 -7.296262,8.75858 -10.838493,15.18383 -4.338828,7.8702 -6.139511,13.64916 -4.931764,15.82753 0.310671,0.56033 0.298833,0.60199 -0.235615,0.82911 -2.149516,0.91348 -5.602876,-0.96273 -7.09299,-3.85362 -1.118317,-2.16958 -0.861695,-3.87634 1.691547,-11.25059 2.223323,-6.42139 2.686898,-8.23317 2.706408,-10.5775 0.03445,-4.13819 -1.142973,-4.68414 -5.590717,-2.59236 -6.839568,3.21668 -16.18576,11.66238 -19.150288,17.3052 -1.36327,2.5949 -1.463586,4.46883 -0.312305,5.83395 1.126244,1.33544 4.534368,3.04874 11.078114,5.56909 5.965711,2.29771 8.673225,3.7593 11.255894,6.07625 2.812175,2.52284 3.985919,4.57741 4.449179,7.78804 0.607829,4.21258 -1.216754,7.84974 -6.236135,12.43128 -2.524562,2.30435 -4.278578,3.61455 -7.40454,5.53098 -6.026658,3.69476 -12.921202,6.37921 -18.773295,7.30956 -2.958548,0.47034 -7.522641,0.43207 -9.6199107,-0.0807 z m 99.9523147,-0.18506 c -0.58651,-0.11601 -0.68424,-0.23668 -0.74491,-0.91966 -0.0538,-0.60501 0.0124,-0.78612 0.28684,-0.78612 0.19619,0 0.4477,0.22324 0.55892,0.49608 0.2278,0.55885 0.65337,0.76323 1.5892,0.76323 0.91197,0 1.38578,-0.52445 1.3035,-1.44283 -0.0589,-0.65761 -0.221,-0.85094 -1.19332,-1.42339 -1.90831,-1.1235 -2.3628,-1.61568 -2.3628,-2.55876 0,-0.67676 0.1328,-0.93849 0.70339,-1.3863 0.63741,-0.50025 0.85378,-0.5463 2.30655,-0.4909 l 1.60315,0.0612 0.0698,0.78707 c 0.0873,0.98383 -0.34079,1.04819 -1.04688,0.15741 -0.81841,-1.03244 -2.5109,-0.75608 -2.5109,0.40999 0,0.94004 0.21217,1.25445 1.14664,1.6991 0.47636,0.22666 1.22334,0.70466 1.65997,1.06223 0.65759,0.53853 0.79385,0.79284 0.79385,1.4817 0,0.45738 -0.10942,1.02229 -0.24314,1.25534 -0.47595,0.82947 -2.1471,1.18532 -3.9199,0.83468 z m -26.328344,-0.35743 c 0.415871,-0.29327 0.450052,-0.56308 0.450052,-3.55244 0,-2.98532 -0.03479,-3.26053 -0.450052,-3.56463 -0.415547,-0.30429 -0.265876,-0.32508 1.951443,-0.27129 2.186785,0.0531 2.453367,0.10376 2.981623,0.56711 0.470423,0.41258 0.580133,0.70342 0.580133,1.5378 0,0.85746 -0.109654,1.13126 -0.657772,1.6425 -0.569755,0.53142 -0.825713,0.61352 -1.912749,0.61352 h -1.254967 v 1.29525 c 0,0.91071 0.110565,1.40921 0.372418,1.67908 0.35716,0.3681 0.313359,0.38355 -1.068886,0.37715 -1.335399,-0.006 -1.408236,-0.03 -0.991243,-0.32405 z m 3.835714,-3.96238 c 0.37872,-0.35324 0.552341,-0.74909 0.552341,-1.25932 0,-1.01823 -0.642767,-1.58368 -1.800232,-1.58368 h -0.900112 v 1.67909 1.67908 h 0.797831 c 0.547034,0 0.971452,-0.16194 1.350172,-0.51517 z m 1.901248,3.70995 c 0.254249,-0.32075 1.052359,-2.04444 1.773595,-3.83042 1.164854,-2.88453 1.372619,-3.25418 1.860088,-3.3094 0.524032,-0.0593 0.598047,0.0901 1.642554,3.31767 0.601572,1.85892 1.288372,3.61057 1.526202,3.89258 l 0.43241,0.51272 h -1.50394 c -1.479415,0 -1.495857,-0.006 -1.007388,-0.37503 0.45535,-0.34391 0.475388,-0.44844 0.24129,-1.25931 l -0.255296,-0.88428 H 91.22209 89.777108 l -0.278505,0.86702 c -0.260544,0.81108 -0.24499,0.8923 0.240921,1.25931 l 0.519436,0.39229 h -1.38184 -1.38184 z m 4.501844,-2.52441 c 0,-0.093 -0.242535,-0.91947 -0.538973,-1.8365 -0.535773,-1.65745 -0.540578,-1.6636 -0.811334,-1.03767 -0.318636,0.73661 -1.125015,2.86633 -1.125015,2.97126 0,0.0397 0.556944,0.0721 1.237661,0.0721 0.680708,0 1.237661,-0.0762 1.237661,-0.16916 z m 3.903121,2.72374 c 0.52907,-0.54529 0.56024,-6.69822 0.0348,-6.88626 -0.82624,-0.29572 -0.1879,-0.49567 1.58244,-0.49567 2.814297,0 3.930767,0.55962 3.930767,1.97024 0,0.82879 -0.47701,1.60002 -1.20752,1.95237 -0.57362,0.27667 -0.61644,0.35096 -0.2981,0.51712 0.20446,0.10674 0.64344,0.63902 0.9755,1.18286 0.33208,0.54384 0.85929,1.24854 1.17162,1.56598 l 0.56784,0.57718 H 102.209 c -0.88855,0 -0.92895,-0.0321 -1.64925,-1.31177 -0.972037,-1.72689 -1.293587,-2.04638 -2.059527,-2.04638 -0.62973,0 -0.64021,0.0198 -0.64021,1.21261 0,0.75781 0.13137,1.38755 0.35029,1.67908 0.34975,0.46572 0.34825,0.46646 -0.93499,0.46646 -1.23092,0 -1.26954,-0.0162 -0.91287,-0.38382 z m 3.39321,-3.63491 c 0.635247,-0.26997 1.141867,-1.40775 0.918747,-2.0634 -0.25485,-0.74896 -0.780917,-1.05397 -1.817837,-1.05397 h -0.99656 v 1.67909 1.67908 h 0.6645 c 0.36548,0 0.91948,-0.10836 1.23115,-0.2408 z m 4.482797,3.63491 c 0.52518,-0.54127 0.55482,-6.34228 0.0348,-6.82723 -0.5267,-0.49126 -0.42377,-0.5547 0.90011,-0.5547 1.18357,0 1.61746,0.23893 0.90012,0.49567 -0.52537,0.18804 -0.4942,6.34097 0.0348,6.88626 0.35674,0.36767 0.31735,0.38382 -0.93499,0.38382 -1.25234,0 -1.29173,-0.0161 -0.93499,-0.38382 z m 20.82582,-1.57948 c -2.39755,-0.9199 -4.07848,-2.45881 -5.29459,-4.84724 -1.25727,-2.4693 -1.72391,-5.06059 -1.58939,-8.82592 0.0618,-1.73155 0.28001,-3.93557 0.48477,-4.89781 0.20475,-0.96225 0.34143,-1.83081 0.30371,-1.93014 -0.0377,-0.0993 -0.72679,0.81566 -1.53127,2.03335 -1.84452,2.79189 -4.42665,5.71496 -5.58463,6.32198 -1.1291,0.59188 -3.87405,0.63716 -5.4874,0.0905 -1.50719,-0.51067 -3.01038,-1.57074 -3.5066,-2.4729 l -0.42613,-0.7747 -1.02959,1.24798 c -1.29753,1.57277 -3.537387,3.51663 -4.676887,4.05883 -0.48048,0.22862 -1.293816,0.41568 -1.807426,0.41568 -2.037737,0 -5.917013,-2.67653 -6.603714,-4.55627 -0.196005,-0.53654 -0.359598,-1.54901 -0.363534,-2.24992 -0.0057,-1.05324 -0.05474,-1.21401 -0.281289,-0.92642 -0.150777,0.19139 -1.110973,1.47759 -2.133787,2.85824 -2.015333,2.72039 -5.089583,5.93833 -6.213963,6.50441 -1.059684,0.5335 -4.3663,0.46306 -6.001441,-0.12786 -1.585039,-0.57281 -3.044458,-1.57028 -3.536541,-2.4171 -1.448874,-2.49337 2.037428,-15.32417 6.566667,-24.16756 1.765626,-3.44741 2.349929,-3.98074 4.190713,-3.82505 2.095246,0.1772 4.491426,1.57079 4.491426,2.61216 0,0.27028 -0.290234,1.03181 -0.64497,1.69229 -2.787989,5.19092 -8.091066,19.77571 -7.190511,19.77571 1.241223,0 8.840059,-11.52691 14.528009,-22.03797 1.530446,-2.82821 2.933215,-5.28386 3.117215,-5.45702 0.48337,-0.45481 2.671566,-0.37201 3.934046,0.14887 1.266177,0.5224 2.545007,1.55165 2.888277,2.32459 0.23118,0.52056 0.124,0.90364 -0.95455,3.4116 -3.137107,7.29472 -5.978903,17.48031 -5.734393,20.55318 l 0.0707,0.88797 0.900116,-0.66893 c 1.35052,-1.00367 2.86247,-2.74089 5.027687,-5.77683 2.30314,-3.22931 2.7017,-3.94067 3.76127,-6.71318 1.02139,-2.67261 3.56125,-7.51234 5.01168,-9.54979 2.15549,-3.02787 4.90098,-5.55235 7.22989,-6.64786 1.08758,-0.51159 1.50668,-0.58715 3.27258,-0.58997 1.92833,-0.004 2.12193,0.04 4.04573,0.90215 1.4618,0.65505 2.04559,0.82915 2.11129,0.62967 0.28561,-0.86716 5.41144,-9.96097 7.00953,-12.43569 4.31737,-6.68564 6.87007,-9.06896 9.25835,-8.64395 1.20579,0.21459 2.99021,1.07485 4.00741,1.93198 0.91834,0.77384 1.80878,2.08773 1.80878,2.66897 0,0.15937 -1.1909,1.41457 -2.64643,2.78934 -4.03708,3.81304 -7.74709,9.21705 -11.32906,16.5019 -6.14305,12.49341 -9.65634,25.64588 -8.80137,32.94905 0.44636,3.81296 1.51342,5.65926 3.71981,6.43628 l 1.16727,0.41107 -1.01263,0.43361 c -1.34533,0.57607 -2.93668,0.55804 -4.52478,-0.0513 z m -12.51892,-19.91725 c 2.03266,-2.03848 6.9968,-9.57966 9.35632,-14.2135 3.14322,-6.17293 -0.8414,-6.17764 -5.2873,-0.006 -3.91492,5.43435 -6.98393,13.35704 -5.72302,14.7741 0.44714,0.50252 0.67696,0.42548 1.654,-0.55436 z m -50.777751,19.89205 c -0.481478,-0.16005 -1.423869,-0.64332 -2.094209,-1.07392 -4.26116,-2.73729 -5.761786,-7.34174 -4.670635,-14.33113 1.269383,-8.13105 6.501843,-21.7308 12.602367,-32.75494 0.794207,-1.43518 1.419258,-2.63251 1.389014,-2.66073 -0.03028,-0.0282 -0.86712,0.0801 -1.859733,0.24083 -2.83964,0.45961 -4.65092,1.05514 -5.386111,1.77087 -0.358691,0.34919 -0.766166,0.63491 -0.905504,0.63491 -0.849924,0 -2.561338,-2.82494 -2.751272,-4.54136 -0.119283,-1.07794 -0.0912,-1.15488 0.663902,-1.81911 0.729807,-0.64198 2.727024,-1.34736 5.434895,-1.91949 0.998116,-0.21088 7.363928,-0.9545 8.173403,-0.95477 0.655669,-2.2e-4 0.905384,-0.2277 2.812856,-2.56239 1.151326,-1.4092 2.717219,-3.17057 3.479779,-3.91418 l 1.386463,-1.352 1.268235,0.12209 c 1.559464,0.15011 2.823506,0.81373 4.239592,2.22575 1.060788,1.05777 1.507992,1.80805 1.507992,2.53005 0,0.20922 -0.621421,1.07241 -1.380936,1.91821 -1.600016,1.78179 -1.876361,1.4932 2.281046,2.38208 4.286444,0.91647 5.821354,2.04504 6.778424,4.98395 0.5668,1.74047 0.64412,2.92392 0.22202,3.39829 -0.27571,0.30985 -0.37483,0.28333 -1.07057,-0.28643 -0.946394,-0.77502 -2.006748,-1.27956 -3.904617,-1.85789 -1.751094,-0.5336 -5.904423,-1.21216 -8.551092,-1.39706 l -1.912736,-0.13361 -1.722088,2.48094 c -5.740898,8.27074 -10.511339,18.73962 -13.468092,29.55618 -1.214909,4.44441 -1.652799,7.25772 -1.666108,10.70416 -0.01845,4.77754 0.784188,6.80152 3.077609,7.76061 l 1.177069,0.49223 -0.83663,0.33365 c -1.019718,0.40665 -3.128249,0.41848 -4.314333,0.0242 z M 203.22228,170.6774 c -1.46155,-0.95482 -1.47923,-2.58538 -0.0716,-6.61085 0.62714,-1.79355 0.78018,-2.44824 0.52702,-2.2546 -0.52027,0.39798 -2.41292,3.15147 -3.00243,4.36806 -0.42133,0.86954 -0.60733,1.04703 -1.09729,1.04703 -1.2457,0 -1.3741,-0.6127 -0.66855,-3.1901 0.25384,-0.92723 0.41703,-1.72738 0.36265,-1.77808 -0.14651,-0.13666 -1.59116,2.07369 -2.80069,4.28508 -0.99778,1.8243 -1.10364,1.94055 -1.76776,1.94145 -0.38852,5.2e-4 -0.93329,-0.1704 -1.21059,-0.37983 l -0.50418,-0.3808 0.84129,-1.98042 c 1.10095,-2.59168 1.61381,-4.87189 1.25908,-5.59804 -0.24667,-0.50494 -0.32874,-0.52608 -1.61875,-0.41699 -0.74739,0.0632 -1.41321,0.16559 -1.47961,0.22752 -0.0663,0.0619 0.15411,0.33304 0.48998,0.60251 0.81088,0.65054 0.97807,1.97364 0.45959,3.63712 -0.45451,1.45825 -1.33818,3.16248 -1.97636,3.81156 -1.64859,1.67674 -5.34278,0.76036 -5.34278,-1.32532 v -0.78652 l -1.23259,1.27041 c -1.98642,2.04733 -3.49678,2.33409 -5.53756,1.05135 -1.08713,-0.68332 -1.25475,-1.30224 -0.80895,-2.98718 0.52099,-1.96907 1.65869,-4.0186 2.89841,-5.22135 1.01466,-0.98441 1.0968,-1.02111 2.02526,-0.90487 0.77259,0.0967 1.06345,0.0373 1.44245,-0.29469 0.4069,-0.35642 0.55921,-0.37995 1.06574,-0.16469 0.32504,0.13813 0.73534,0.45663 0.91176,0.70778 0.29451,0.4192 0.25612,0.5326 -0.46852,1.38437 -1.01958,1.19843 -1.42114,1.93209 -1.42114,2.59642 0,0.62821 -0.52795,0.71284 -1.3001,0.20841 -0.55522,-0.36273 -0.68417,-1.47899 -0.25687,-2.22367 0.44967,-0.78366 0.0214,-0.64475 -0.5664,0.18371 -1.26893,1.78845 -2.15422,5.36633 -1.39506,5.63804 1.06177,0.38003 2.43027,-0.68631 4.58386,-3.57174 0.69519,-0.93144 1.29682,-1.73288 1.33694,-1.78097 0.22378,-0.26829 1.50979,-0.0299 1.92426,0.35663 l 0.47613,0.44409 -0.74454,1.50661 c -0.83773,1.69517 -1.12668,3.19114 -0.66751,3.45584 0.43968,0.25344 1.90748,-1.40804 2.45943,-2.78398 1.12571,-2.80627 0.60324,-4.64488 -0.99878,-3.51472 -0.57997,0.40914 -0.65254,0.39744 -1.45867,-0.23522 -1.02179,-0.80193 -0.90412,-1.21878 0.48906,-1.73237 1.49328,-0.5505 3.75249,-1.08278 4.5893,-1.08126 1.23755,0.003 2.43339,0.46535 3.30786,1.28096 0.86601,0.80773 0.87418,0.83054 0.78204,2.18017 -0.0512,0.75014 -0.0296,1.29332 0.0478,1.20707 0.0775,-0.0863 0.67849,-0.95965 1.33557,-1.94086 1.89955,-2.83662 2.31175,-3.11777 3.50335,-2.38955 0.67177,0.41054 0.68548,0.70987 0.10459,2.28461 -0.24753,0.67104 -0.45005,1.2666 -0.45005,1.32346 0,0.0569 0.52067,-0.54823 1.15704,-1.34464 1.62965,-2.03947 2.68234,-3.02216 3.23746,-3.02216 0.57412,0 1.45624,0.82058 1.45624,1.35464 0,0.21071 -0.45397,1.49599 -1.00884,2.85618 -1.12721,2.76324 -2.14156,6.18423 -2.14156,7.22261 0,0.37583 0.20987,0.93218 0.4664,1.23633 l 0.46638,0.55303 h -0.75386 c -0.41463,0 -0.9795,-0.14741 -1.25528,-0.32758 z m -45.67931,-2.39378 c -5.44466,-1.36595 -9.27647,-4.71541 -9.27647,-8.10872 0,-0.99071 -0.30921,-1.03065 -1.04061,-0.1344 -1.20633,1.47826 -3.94808,4.01727 -5.05056,4.67712 -2.86829,1.71671 -7.96959,0.4021 -9.44103,-2.43296 -0.4323,-0.83291 -0.48155,-1.16642 -0.34979,-2.36864 0.34171,-3.11765 1.83987,-8.38423 3.76173,-13.22376 1.37684,-3.4671 3.77815,-8.16713 4.46756,-8.74425 1.57366,-1.31735 7.20264,0.59118 7.20264,2.44207 0,0.31874 -0.89881,2.3081 -1.99736,4.42081 -3.4279,6.59244 -4.97852,10.64189 -4.97852,13.00136 0,1.34186 0.21993,1.59119 1.20096,1.36153 0.6791,-0.15897 2.56495,-1.91716 4.19412,-3.91021 1.66688,-2.03918 4.3024,-5.72156 4.95719,-6.92623 1.03877,-1.91112 3.46721,-5.24631 3.91693,-5.37943 0.2538,-0.0751 0.73675,-0.32643 1.07322,-0.55845 l 0.61174,-0.42186 -0.13415,-2.7681 c -0.12836,-2.64857 -0.10967,-2.81797 0.43261,-3.92276 0.91032,-1.85459 2.37447,-2.53901 5.45534,-2.55015 3.35456,-0.0122 6.41407,1.0641 8.83101,3.10641 2.43754,2.05973 3.29307,4.3387 3.27215,8.71641 -0.0102,2.13363 -0.65584,6.3193 -1.31934,8.55326 -0.23972,0.80708 1.09319,1.18864 4.25578,1.21825 2.10955,0.0197 2.72983,0.094 3.01599,0.36088 0.49369,0.46046 0.50412,2.02173 0.0181,2.71363 -0.33909,0.48278 -0.58918,0.56722 -2.06081,0.69584 -1.85467,0.16211 -3.99594,-0.011 -5.54179,-0.44803 -0.55695,-0.15745 -1.08779,-0.2873 -1.17967,-0.28856 -0.0918,-0.002 -0.76588,1.1075 -1.49782,2.46389 -2.25031,4.17014 -4.8437,7.15432 -7.16526,8.24493 -1.44013,0.67653 -3.47267,0.75234 -5.63393,0.21012 z m 1.71976,-6.22494 c 1.60375,-1.38096 3.07933,-3.48578 4.47961,-6.38989 l 0.81123,-1.68244 -1.50017,-1.26283 c -0.82508,-0.69456 -1.92553,-1.86631 -2.44545,-2.60386 -0.51989,-0.73757 -1.0256,-1.29474 -1.12376,-1.23816 -0.6898,0.39764 -2.72197,6.66141 -3.24962,10.01642 -0.34381,2.18599 -0.33784,4.43025 0.0132,4.96003 0.22029,0.33245 1.25972,-0.28785 3.01495,-1.79927 z m 7.24264,-14.95949 c 0.51703,-2.69845 -0.15237,-9.04623 -0.95397,-9.04623 -0.11442,0 -0.43018,0.44863 -0.70169,0.99695 -0.88773,1.79279 -0.63993,5.55861 0.56644,8.60779 0.2403,0.60742 0.52132,1.05574 0.62447,0.99628 0.10316,-0.0595 0.31229,-0.75912 0.46475,-1.55479 z m 5.2022,20.65006 c -0.25704,-0.30478 -0.39497,-0.70429 -0.32693,-0.94697 0.13368,-0.47681 1.30297,-1.46421 1.73392,-1.46421 0.51472,0 1.03023,0.7534 1.03023,1.50566 0,1.37202 -1.55618,1.95021 -2.43722,0.90552 z M 144.0644,134.81476 c -1.65686,-0.71952 -1.97975,-1.256 -1.64932,-2.74049 0.34103,-1.53223 1.56272,-4.88913 2.41245,-6.62885 0.81342,-1.66535 1.42128,-1.98932 3.41607,-1.82061 1.59866,0.13521 3.26275,0.79307 4.24218,1.67705 0.77454,0.69906 0.8898,1.1572 0.47884,1.90332 -1.34583,2.4435 -4.62282,7.56362 -4.99756,7.80844 -0.73289,0.47879 -2.55616,0.38588 -3.90266,-0.19886 z m -38.33258,-14.50191 c -0.20202,-0.22704 -0.24703,-0.78931 -0.15541,-1.94144 0.54234,-6.82001 10.49837,-26.913028 13.33533,-26.913028 0.17298,0 0.48027,0.29899 0.68287,0.664417 0.75932,1.369545 0.50209,2.003453 -4.48248,11.046711 -2.55775,4.6404 -4.65045,8.57894 -4.65045,8.75231 0,0.17336 0.093,0.31522 0.20663,0.31522 0.59049,0 1.07645,-0.43709 2.53728,-2.28212 4.52086,-5.70979 7.02899,-7.72341 7.84621,-6.29917 0.29691,0.51744 0.11294,1.98087 -0.39906,3.17438 -0.41988,0.97874 -2.67963,2.90434 -4.18347,3.56484 -1.07655,0.47285 -1.08663,0.48654 -0.96978,1.31736 0.0649,0.46174 0.18514,1.66595 0.2671,2.67603 0.082,1.01009 0.22142,1.8365 0.30991,1.8365 0.44323,0 2.04376,-1.87646 4.53588,-5.31787 1.51834,-2.09668 2.86813,-3.87995 2.99955,-3.96283 1.65022,-1.04066 -4.18296,8.76326 -6.68801,11.24064 -0.70787,0.70006 -0.82376,0.74268 -1.5159,0.55754 -1.64676,-0.4405 -2.692,-2.18173 -2.6995,-4.49701 -0.004,-1.20945 -0.21816,-1.65711 -0.70898,-1.48145 -0.43003,0.15392 -2.79233,3.49909 -3.91863,5.54901 -1.20482,2.19285 -1.75821,2.664 -2.34909,1.99996 z m -9.361817,-3.3629 c -0.69226,-0.98544 -0.11989,-4.18793 1.64581,-9.20838 0.11286,-0.32089 0.0613,-0.37393 -0.25399,-0.2611 -0.21758,0.0779 -1.50447,0.44467 -2.859726,0.81509 -3.914624,1.06996 -4.083201,0.57015 -1.547776,-4.58915 3.631782,-7.390262 6.616212,-12.28935 7.563329,-12.415566 2.01062,-0.267943 0.79149,2.970526 -4.654797,12.364786 -0.978006,1.68697 -1.778206,3.11546 -1.778206,3.1744 0,0.10652 4.495816,-0.5958 4.607416,-0.71976 0.0322,-0.0357 0.84854,-1.48157 1.814307,-3.21313 2.45035,-4.393421 4.96547,-8.595932 5.99797,-10.02203 0.97937,-1.352704 1.75712,-1.636741 1.75712,-0.641706 0,0.310818 -1.25806,3.215115 -2.79568,6.45398 -1.53762,3.238866 -2.82872,6.024666 -2.86912,6.190666 -0.0499,0.20501 0.20093,0.34645 0.78185,0.44094 1.363,0.22168 1.47663,0.54667 0.25108,0.71808 -2.01885,0.28237 -1.83436,0.0294 -4.351807,5.96913 -1.44492,3.40925 -2.43704,5.47799 -2.62709,5.47799 -0.16797,0 -0.47427,-0.24042 -0.68069,-0.53424 z" id="path1"/></g></svg>